<?xml version="1.0" encoding="UTF-8"?>
<svg xmlns="http://www.w3.org/2000/svg" width="16" height="16" viewBox="0 0 16 16" fill="none">
  <circle cx="187.816" cy="187.5" r="187.5" fill="#222222"></circle>
  <path fill-rule="evenodd" clip-rule="evenodd" d="M99.75 110.797L143.102 136.927C172.453 151.89 180.755 188.122 182.886 212.832L119.179 174.281L112.023 150.889L159.254 179.48C153.825 166.026 145.958 156.646 135.784 151.529L135.515 151.392L106.895 134.139L99.75 110.797ZM172.99 150.042L189.402 120.812L205.812 150.042H172.99ZM123.99 189.559L131.162 213.022L173.416 238.633L162.864 245.023L162.848 264.206L189.23 248.216L215.611 264.206L215.589 245.029L205.038 238.633L247.292 213.022L254.464 189.559L189.23 229.061L123.99 189.559ZM242.693 151.529L242.963 151.392L271.582 134.139L278.727 110.797L235.376 136.927C206.019 151.89 197.722 188.128 195.597 212.832L259.292 174.281L266.454 150.884L219.223 179.474C224.652 166.026 232.513 156.646 242.693 151.529Z" fill="#FF1B1B"></path>
</svg>
